<mxfile host="app.diagrams.net" agent="Mozilla/5.0 (Windows NT 10.0; Win64; x64) AppleWebKit/537.36 (KHTML, like Gecko) Chrome/137.0.0.0 Safari/537.36" version="26.2.8">
  <diagram name="PÃ¡gina-1" id="InxuvKM4MF2KsFpSC4Fw">
    <mxGraphModel dx="664" dy="3159" grid="0" gridSize="10" guides="1" tooltips="1" connect="1" arrows="1" fold="1" page="1" pageScale="1" pageWidth="827" pageHeight="1169" math="0" shadow="0">
      <root>
        <mxCell id="0" />
        <mxCell id="1" parent="0" />
        <mxCell id="G7vMpt5fk_W-xUACg-sZ-1" value="Users" style="swimlane;fontStyle=0;childLayout=stackLayout;horizontal=1;startSize=30;horizontalStack=0;resizeParent=1;resizeParentMax=0;resizeLast=0;collapsible=1;marginBottom=0;whiteSpace=wrap;html=1;" parent="1" vertex="1">
          <mxGeometry x="980" y="-920" width="360" height="420" as="geometry" />
        </mxCell>
        <mxCell id="G7vMpt5fk_W-xUACg-sZ-2" value="id SERIAL PRIMARY KEY" style="text;strokeColor=none;fillColor=none;align=left;verticalAlign=middle;spacingLeft=4;spacingRight=4;overflow=hidden;points=[[0,0.5],[1,0.5]];portConstraint=eastwest;rotatable=0;whiteSpace=wrap;html=1;" parent="G7vMpt5fk_W-xUACg-sZ-1" vertex="1">
          <mxGeometry y="30" width="360" height="30" as="geometry" />
        </mxCell>
        <mxCell id="G7vMpt5fk_W-xUACg-sZ-3" value="nombre VARCHAR(100)" style="text;strokeColor=none;fillColor=none;align=left;verticalAlign=middle;spacingLeft=4;spacingRight=4;overflow=hidden;points=[[0,0.5],[1,0.5]];portConstraint=eastwest;rotatable=0;whiteSpace=wrap;html=1;" parent="G7vMpt5fk_W-xUACg-sZ-1" vertex="1">
          <mxGeometry y="60" width="360" height="30" as="geometry" />
        </mxCell>
        <mxCell id="G7vMpt5fk_W-xUACg-sZ-7" value="email VARCHAR(100) UNIQUE NOT NULL" style="text;strokeColor=none;fillColor=none;align=left;verticalAlign=middle;spacingLeft=4;spacingRight=4;overflow=hidden;points=[[0,0.5],[1,0.5]];portConstraint=eastwest;rotatable=0;whiteSpace=wrap;html=1;" parent="G7vMpt5fk_W-xUACg-sZ-1" vertex="1">
          <mxGeometry y="90" width="360" height="30" as="geometry" />
        </mxCell>
        <mxCell id="G7vMpt5fk_W-xUACg-sZ-4" value="password_hash VARCHAR(255)" style="text;strokeColor=none;fillColor=none;align=left;verticalAlign=middle;spacingLeft=4;spacingRight=4;overflow=hidden;points=[[0,0.5],[1,0.5]];portConstraint=eastwest;rotatable=0;whiteSpace=wrap;html=1;" parent="G7vMpt5fk_W-xUACg-sZ-1" vertex="1">
          <mxGeometry y="120" width="360" height="30" as="geometry" />
        </mxCell>
        <mxCell id="G7vMpt5fk_W-xUACg-sZ-6" value="edad INT" style="text;strokeColor=none;fillColor=none;align=left;verticalAlign=middle;spacingLeft=4;spacingRight=4;overflow=hidden;points=[[0,0.5],[1,0.5]];portConstraint=eastwest;rotatable=0;whiteSpace=wrap;html=1;" parent="G7vMpt5fk_W-xUACg-sZ-1" vertex="1">
          <mxGeometry y="150" width="360" height="30" as="geometry" />
        </mxCell>
        <mxCell id="G7vMpt5fk_W-xUACg-sZ-5" value="peso_kg DECIMAL(5,2)" style="text;strokeColor=none;fillColor=none;align=left;verticalAlign=middle;spacingLeft=4;spacingRight=4;overflow=hidden;points=[[0,0.5],[1,0.5]];portConstraint=eastwest;rotatable=0;whiteSpace=wrap;html=1;" parent="G7vMpt5fk_W-xUACg-sZ-1" vertex="1">
          <mxGeometry y="180" width="360" height="30" as="geometry" />
        </mxCell>
        <mxCell id="G7vMpt5fk_W-xUACg-sZ-8" value="altura_cm DECIMAL(5,2)" style="text;strokeColor=none;fillColor=none;align=left;verticalAlign=middle;spacingLeft=4;spacingRight=4;overflow=hidden;points=[[0,0.5],[1,0.5]];portConstraint=eastwest;rotatable=0;whiteSpace=wrap;html=1;" parent="G7vMpt5fk_W-xUACg-sZ-1" vertex="1">
          <mxGeometry y="210" width="360" height="30" as="geometry" />
        </mxCell>
        <mxCell id="G7vMpt5fk_W-xUACg-sZ-9" value="genero VARCHAR(20)" style="text;strokeColor=none;fillColor=none;align=left;verticalAlign=middle;spacingLeft=4;spacingRight=4;overflow=hidden;points=[[0,0.5],[1,0.5]];portConstraint=eastwest;rotatable=0;whiteSpace=wrap;html=1;" parent="G7vMpt5fk_W-xUACg-sZ-1" vertex="1">
          <mxGeometry y="240" width="360" height="30" as="geometry" />
        </mxCell>
        <mxCell id="G7vMpt5fk_W-xUACg-sZ-10" value="nivel_actividad VARCHAR(50)" style="text;strokeColor=none;fillColor=none;align=left;verticalAlign=middle;spacingLeft=4;spacingRight=4;overflow=hidden;points=[[0,0.5],[1,0.5]];portConstraint=eastwest;rotatable=0;whiteSpace=wrap;html=1;" parent="G7vMpt5fk_W-xUACg-sZ-1" vertex="1">
          <mxGeometry y="270" width="360" height="30" as="geometry" />
        </mxCell>
        <mxCell id="sHE3IV5SO3RIi7z_2FYA-1" value="fecha_creacion TIMESTAMP DEFAULT CURRENT_TIMESTAMP" style="text;strokeColor=none;fillColor=none;align=left;verticalAlign=middle;spacingLeft=4;spacingRight=4;overflow=hidden;points=[[0,0.5],[1,0.5]];portConstraint=eastwest;rotatable=0;whiteSpace=wrap;html=1;" vertex="1" parent="G7vMpt5fk_W-xUACg-sZ-1">
          <mxGeometry y="300" width="360" height="30" as="geometry" />
        </mxCell>
        <mxCell id="G7vMpt5fk_W-xUACg-sZ-11" value="objetivo VARCHAR(50)" style="text;strokeColor=none;fillColor=none;align=left;verticalAlign=middle;spacingLeft=4;spacingRight=4;overflow=hidden;points=[[0,0.5],[1,0.5]];portConstraint=eastwest;rotatable=0;whiteSpace=wrap;html=1;" parent="G7vMpt5fk_W-xUACg-sZ-1" vertex="1">
          <mxGeometry y="330" width="360" height="30" as="geometry" />
        </mxCell>
        <mxCell id="G7vMpt5fk_W-xUACg-sZ-12" value="calorias_meta_diaria INT" style="text;strokeColor=none;fillColor=none;align=left;verticalAlign=middle;spacingLeft=4;spacingRight=4;overflow=hidden;points=[[0,0.5],[1,0.5]];portConstraint=eastwest;rotatable=0;whiteSpace=wrap;html=1;" parent="G7vMpt5fk_W-xUACg-sZ-1" vertex="1">
          <mxGeometry y="360" width="360" height="30" as="geometry" />
        </mxCell>
        <mxCell id="sHE3IV5SO3RIi7z_2FYA-2" value="is_admin BOOLEAN" style="text;strokeColor=none;fillColor=none;align=left;verticalAlign=middle;spacingLeft=4;spacingRight=4;overflow=hidden;points=[[0,0.5],[1,0.5]];portConstraint=eastwest;rotatable=0;whiteSpace=wrap;html=1;" vertex="1" parent="G7vMpt5fk_W-xUACg-sZ-1">
          <mxGeometry y="390" width="360" height="30" as="geometry" />
        </mxCell>
        <mxCell id="sHE3IV5SO3RIi7z_2FYA-11" style="edgeStyle=orthogonalEdgeStyle;rounded=0;orthogonalLoop=1;jettySize=auto;html=1;exitX=0.5;exitY=0;exitDx=0;exitDy=0;endArrow=none;startFill=0;" edge="1" parent="1" source="G7vMpt5fk_W-xUACg-sZ-13" target="sHE3IV5SO3RIi7z_2FYA-6">
          <mxGeometry relative="1" as="geometry" />
        </mxCell>
        <mxCell id="G7vMpt5fk_W-xUACg-sZ-13" value="Food" style="swimlane;fontStyle=0;childLayout=stackLayout;horizontal=1;startSize=30;horizontalStack=0;resizeParent=1;resizeParentMax=0;resizeLast=0;collapsible=1;marginBottom=0;whiteSpace=wrap;html=1;" parent="1" vertex="1">
          <mxGeometry x="2041" y="-894" width="270" height="330" as="geometry" />
        </mxCell>
        <mxCell id="G7vMpt5fk_W-xUACg-sZ-14" value="id SERIAL PRIMARY KEY" style="text;strokeColor=none;fillColor=none;align=left;verticalAlign=middle;spacingLeft=4;spacingRight=4;overflow=hidden;points=[[0,0.5],[1,0.5]];portConstraint=eastwest;rotatable=0;whiteSpace=wrap;html=1;" parent="G7vMpt5fk_W-xUACg-sZ-13" vertex="1">
          <mxGeometry y="30" width="270" height="30" as="geometry" />
        </mxCell>
        <mxCell id="G7vMpt5fk_W-xUACg-sZ-15" value="nombre VARCHAR(100) NOT NULL" style="text;strokeColor=none;fillColor=none;align=left;verticalAlign=middle;spacingLeft=4;spacingRight=4;overflow=hidden;points=[[0,0.5],[1,0.5]];portConstraint=eastwest;rotatable=0;whiteSpace=wrap;html=1;" parent="G7vMpt5fk_W-xUACg-sZ-13" vertex="1">
          <mxGeometry y="60" width="270" height="30" as="geometry" />
        </mxCell>
        <mxCell id="G7vMpt5fk_W-xUACg-sZ-17" value="marca VARCHAR(100)" style="text;strokeColor=none;fillColor=none;align=left;verticalAlign=middle;spacingLeft=4;spacingRight=4;overflow=hidden;points=[[0,0.5],[1,0.5]];portConstraint=eastwest;rotatable=0;whiteSpace=wrap;html=1;" parent="G7vMpt5fk_W-xUACg-sZ-13" vertex="1">
          <mxGeometry y="90" width="270" height="30" as="geometry" />
        </mxCell>
        <mxCell id="G7vMpt5fk_W-xUACg-sZ-18" value="categoria VARCHAR(50)" style="text;strokeColor=none;fillColor=none;align=left;verticalAlign=middle;spacingLeft=4;spacingRight=4;overflow=hidden;points=[[0,0.5],[1,0.5]];portConstraint=eastwest;rotatable=0;whiteSpace=wrap;html=1;" parent="G7vMpt5fk_W-xUACg-sZ-13" vertex="1">
          <mxGeometry y="120" width="270" height="30" as="geometry" />
        </mxCell>
        <mxCell id="G7vMpt5fk_W-xUACg-sZ-19" value="calorias_100g DECIMAL(6,2)" style="text;strokeColor=none;fillColor=none;align=left;verticalAlign=middle;spacingLeft=4;spacingRight=4;overflow=hidden;points=[[0,0.5],[1,0.5]];portConstraint=eastwest;rotatable=0;whiteSpace=wrap;html=1;" parent="G7vMpt5fk_W-xUACg-sZ-13" vertex="1">
          <mxGeometry y="150" width="270" height="30" as="geometry" />
        </mxCell>
        <mxCell id="G7vMpt5fk_W-xUACg-sZ-20" value="grasas DECIMAL(6,2)" style="text;strokeColor=none;fillColor=none;align=left;verticalAlign=middle;spacingLeft=4;spacingRight=4;overflow=hidden;points=[[0,0.5],[1,0.5]];portConstraint=eastwest;rotatable=0;whiteSpace=wrap;html=1;" parent="G7vMpt5fk_W-xUACg-sZ-13" vertex="1">
          <mxGeometry y="180" width="270" height="30" as="geometry" />
        </mxCell>
        <mxCell id="G7vMpt5fk_W-xUACg-sZ-21" value="proteinas DECIMAL(6,2)" style="text;strokeColor=none;fillColor=none;align=left;verticalAlign=middle;spacingLeft=4;spacingRight=4;overflow=hidden;points=[[0,0.5],[1,0.5]];portConstraint=eastwest;rotatable=0;whiteSpace=wrap;html=1;" parent="G7vMpt5fk_W-xUACg-sZ-13" vertex="1">
          <mxGeometry y="210" width="270" height="30" as="geometry" />
        </mxCell>
        <mxCell id="G7vMpt5fk_W-xUACg-sZ-22" value="carbohidratos DECIMAL(6,2)" style="text;strokeColor=none;fillColor=none;align=left;verticalAlign=middle;spacingLeft=4;spacingRight=4;overflow=hidden;points=[[0,0.5],[1,0.5]];portConstraint=eastwest;rotatable=0;whiteSpace=wrap;html=1;" parent="G7vMpt5fk_W-xUACg-sZ-13" vertex="1">
          <mxGeometry y="240" width="270" height="30" as="geometry" />
        </mxCell>
        <mxCell id="G7vMpt5fk_W-xUACg-sZ-23" value="fuente_datos VARCHAR(100)" style="text;strokeColor=none;fillColor=none;align=left;verticalAlign=middle;spacingLeft=4;spacingRight=4;overflow=hidden;points=[[0,0.5],[1,0.5]];portConstraint=eastwest;rotatable=0;whiteSpace=wrap;html=1;" parent="G7vMpt5fk_W-xUACg-sZ-13" vertex="1">
          <mxGeometry y="270" width="270" height="30" as="geometry" />
        </mxCell>
        <mxCell id="G7vMpt5fk_W-xUACg-sZ-16" value="codigo_barra VARCHAR(50)" style="text;strokeColor=none;fillColor=none;align=left;verticalAlign=middle;spacingLeft=4;spacingRight=4;overflow=hidden;points=[[0,0.5],[1,0.5]];portConstraint=eastwest;rotatable=0;whiteSpace=wrap;html=1;" parent="G7vMpt5fk_W-xUACg-sZ-13" vertex="1">
          <mxGeometry y="300" width="270" height="30" as="geometry" />
        </mxCell>
        <mxCell id="G7vMpt5fk_W-xUACg-sZ-33" value="Daily_summary" style="swimlane;fontStyle=0;childLayout=stackLayout;horizontal=1;startSize=30;horizontalStack=0;resizeParent=1;resizeParentMax=0;resizeLast=0;collapsible=1;marginBottom=0;whiteSpace=wrap;html=1;" parent="1" vertex="1">
          <mxGeometry x="987" y="-1303" width="346" height="180" as="geometry" />
        </mxCell>
        <mxCell id="G7vMpt5fk_W-xUACg-sZ-34" value="id SERIAL PRIMARY KEY" style="text;strokeColor=none;fillColor=none;align=left;verticalAlign=middle;spacingLeft=4;spacingRight=4;overflow=hidden;points=[[0,0.5],[1,0.5]];portConstraint=eastwest;rotatable=0;whiteSpace=wrap;html=1;" parent="G7vMpt5fk_W-xUACg-sZ-33" vertex="1">
          <mxGeometry y="30" width="346" height="30" as="geometry" />
        </mxCell>
        <mxCell id="G7vMpt5fk_W-xUACg-sZ-35" value="user_id INT REFERENCES users(id) ON DELETE CASCADE" style="text;strokeColor=none;fillColor=none;align=left;verticalAlign=middle;spacingLeft=4;spacingRight=4;overflow=hidden;points=[[0,0.5],[1,0.5]];portConstraint=eastwest;rotatable=0;whiteSpace=wrap;html=1;" parent="G7vMpt5fk_W-xUACg-sZ-33" vertex="1">
          <mxGeometry y="60" width="346" height="30" as="geometry" />
        </mxCell>
        <mxCell id="G7vMpt5fk_W-xUACg-sZ-37" value="fecha DATE NOT NULL" style="text;strokeColor=none;fillColor=none;align=left;verticalAlign=middle;spacingLeft=4;spacingRight=4;overflow=hidden;points=[[0,0.5],[1,0.5]];portConstraint=eastwest;rotatable=0;whiteSpace=wrap;html=1;" parent="G7vMpt5fk_W-xUACg-sZ-33" vertex="1">
          <mxGeometry y="90" width="346" height="30" as="geometry" />
        </mxCell>
        <mxCell id="G7vMpt5fk_W-xUACg-sZ-38" value="calorias_totales DECIMAL(6,2)" style="text;strokeColor=none;fillColor=none;align=left;verticalAlign=middle;spacingLeft=4;spacingRight=4;overflow=hidden;points=[[0,0.5],[1,0.5]];portConstraint=eastwest;rotatable=0;whiteSpace=wrap;html=1;" parent="G7vMpt5fk_W-xUACg-sZ-33" vertex="1">
          <mxGeometry y="120" width="346" height="30" as="geometry" />
        </mxCell>
        <mxCell id="G7vMpt5fk_W-xUACg-sZ-36" value="calorias_objetivo DECIMAL(6,2)" style="text;strokeColor=none;fillColor=none;align=left;verticalAlign=middle;spacingLeft=4;spacingRight=4;overflow=hidden;points=[[0,0.5],[1,0.5]];portConstraint=eastwest;rotatable=0;whiteSpace=wrap;html=1;" parent="G7vMpt5fk_W-xUACg-sZ-33" vertex="1">
          <mxGeometry y="150" width="346" height="30" as="geometry" />
        </mxCell>
        <mxCell id="G7vMpt5fk_W-xUACg-sZ-43" value="" style="endArrow=none;html=1;rounded=0;" parent="1" source="G7vMpt5fk_W-xUACg-sZ-1" target="G7vMpt5fk_W-xUACg-sZ-33" edge="1">
          <mxGeometry relative="1" as="geometry">
            <mxPoint x="1240" y="-850" as="sourcePoint" />
            <mxPoint x="1400" y="-850" as="targetPoint" />
          </mxGeometry>
        </mxCell>
        <mxCell id="G7vMpt5fk_W-xUACg-sZ-46" value="1" style="text;html=1;align=center;verticalAlign=middle;whiteSpace=wrap;rounded=0;" parent="1" vertex="1">
          <mxGeometry x="1160" y="-960" width="60" height="30" as="geometry" />
        </mxCell>
        <mxCell id="G7vMpt5fk_W-xUACg-sZ-47" value="n" style="text;html=1;align=center;verticalAlign=middle;whiteSpace=wrap;rounded=0;" parent="1" vertex="1">
          <mxGeometry x="1160" y="-1115" width="60" height="30" as="geometry" />
        </mxCell>
        <mxCell id="sHE3IV5SO3RIi7z_2FYA-3" value="Daily_summary_foods" style="swimlane;fontStyle=0;childLayout=stackLayout;horizontal=1;startSize=30;horizontalStack=0;resizeParent=1;resizeParentMax=0;resizeLast=0;collapsible=1;marginBottom=0;whiteSpace=wrap;html=1;" vertex="1" parent="1">
          <mxGeometry x="1525" y="-1303" width="451" height="210" as="geometry" />
        </mxCell>
        <mxCell id="sHE3IV5SO3RIi7z_2FYA-4" value="id SERIAL PRIMARY KEY" style="text;strokeColor=none;fillColor=none;align=left;verticalAlign=middle;spacingLeft=4;spacingRight=4;overflow=hidden;points=[[0,0.5],[1,0.5]];portConstraint=eastwest;rotatable=0;whiteSpace=wrap;html=1;" vertex="1" parent="sHE3IV5SO3RIi7z_2FYA-3">
          <mxGeometry y="30" width="451" height="30" as="geometry" />
        </mxCell>
        <mxCell id="sHE3IV5SO3RIi7z_2FYA-5" value="daily_summary_id INT REFERENCES daily_summary(id) ON DELETE CASCADE" style="text;strokeColor=none;fillColor=none;align=left;verticalAlign=middle;spacingLeft=4;spacingRight=4;overflow=hidden;points=[[0,0.5],[1,0.5]];portConstraint=eastwest;rotatable=0;whiteSpace=wrap;html=1;" vertex="1" parent="sHE3IV5SO3RIi7z_2FYA-3">
          <mxGeometry y="60" width="451" height="30" as="geometry" />
        </mxCell>
        <mxCell id="sHE3IV5SO3RIi7z_2FYA-9" value="food_id INT REFERENCES food(id) ON DELETE CASCADE" style="text;strokeColor=none;fillColor=none;align=left;verticalAlign=middle;spacingLeft=4;spacingRight=4;overflow=hidden;points=[[0,0.5],[1,0.5]];portConstraint=eastwest;rotatable=0;whiteSpace=wrap;html=1;fontStyle=1" vertex="1" parent="sHE3IV5SO3RIi7z_2FYA-3">
          <mxGeometry y="90" width="451" height="30" as="geometry" />
        </mxCell>
        <mxCell id="sHE3IV5SO3RIi7z_2FYA-6" value="cantidad_g DOUBLE" style="text;strokeColor=none;fillColor=none;align=left;verticalAlign=middle;spacingLeft=4;spacingRight=4;overflow=hidden;points=[[0,0.5],[1,0.5]];portConstraint=eastwest;rotatable=0;whiteSpace=wrap;html=1;" vertex="1" parent="sHE3IV5SO3RIi7z_2FYA-3">
          <mxGeometry y="120" width="451" height="30" as="geometry" />
        </mxCell>
        <mxCell id="sHE3IV5SO3RIi7z_2FYA-7" value="calorias DOUBLE" style="text;strokeColor=none;fillColor=none;align=left;verticalAlign=middle;spacingLeft=4;spacingRight=4;overflow=hidden;points=[[0,0.5],[1,0.5]];portConstraint=eastwest;rotatable=0;whiteSpace=wrap;html=1;" vertex="1" parent="sHE3IV5SO3RIi7z_2FYA-3">
          <mxGeometry y="150" width="451" height="30" as="geometry" />
        </mxCell>
        <mxCell id="sHE3IV5SO3RIi7z_2FYA-8" value="comida_tipo VARCHAR(50)" style="text;strokeColor=none;fillColor=none;align=left;verticalAlign=middle;spacingLeft=4;spacingRight=4;overflow=hidden;points=[[0,0.5],[1,0.5]];portConstraint=eastwest;rotatable=0;whiteSpace=wrap;html=1;" vertex="1" parent="sHE3IV5SO3RIi7z_2FYA-3">
          <mxGeometry y="180" width="451" height="30" as="geometry" />
        </mxCell>
        <mxCell id="sHE3IV5SO3RIi7z_2FYA-10" style="edgeStyle=orthogonalEdgeStyle;rounded=0;orthogonalLoop=1;jettySize=auto;html=1;exitX=0;exitY=0.5;exitDx=0;exitDy=0;endArrow=none;startFill=0;" edge="1" parent="1" source="sHE3IV5SO3RIi7z_2FYA-9" target="G7vMpt5fk_W-xUACg-sZ-37">
          <mxGeometry relative="1" as="geometry" />
        </mxCell>
        <mxCell id="sHE3IV5SO3RIi7z_2FYA-12" value="1" style="text;html=1;align=center;verticalAlign=middle;whiteSpace=wrap;rounded=0;" vertex="1" parent="1">
          <mxGeometry x="1340" y="-1185" width="60" height="30" as="geometry" />
        </mxCell>
        <mxCell id="sHE3IV5SO3RIi7z_2FYA-13" value="n" style="text;html=1;align=center;verticalAlign=middle;whiteSpace=wrap;rounded=0;" vertex="1" parent="1">
          <mxGeometry x="1461" y="-1185" width="60" height="30" as="geometry" />
        </mxCell>
        <mxCell id="sHE3IV5SO3RIi7z_2FYA-14" value="n" style="text;html=1;align=center;verticalAlign=middle;whiteSpace=wrap;rounded=0;" vertex="1" parent="1">
          <mxGeometry x="1991" y="-1208" width="60" height="30" as="geometry" />
        </mxCell>
        <mxCell id="sHE3IV5SO3RIi7z_2FYA-15" value="1" style="text;html=1;align=center;verticalAlign=middle;whiteSpace=wrap;rounded=0;" vertex="1" parent="1">
          <mxGeometry x="2183" y="-934" width="60" height="30" as="geometry" />
        </mxCell>
        <mxCell id="sHE3IV5SO3RIi7z_2FYA-16" value="Recipes" style="swimlane;fontStyle=0;childLayout=stackLayout;horizontal=1;startSize=30;horizontalStack=0;resizeParent=1;resizeParentMax=0;resizeLast=0;collapsible=1;marginBottom=0;whiteSpace=wrap;html=1;" vertex="1" parent="1">
          <mxGeometry x="1543.5" y="-875" width="373" height="330" as="geometry" />
        </mxCell>
        <mxCell id="sHE3IV5SO3RIi7z_2FYA-17" value="id SERIAL PRIMARY KEY" style="text;strokeColor=none;fillColor=none;align=left;verticalAlign=middle;spacingLeft=4;spacingRight=4;overflow=hidden;points=[[0,0.5],[1,0.5]];portConstraint=eastwest;rotatable=0;whiteSpace=wrap;html=1;" vertex="1" parent="sHE3IV5SO3RIi7z_2FYA-16">
          <mxGeometry y="30" width="373" height="30" as="geometry" />
        </mxCell>
        <mxCell id="sHE3IV5SO3RIi7z_2FYA-18" value="name VARCHAR(255) NOT NULL" style="text;strokeColor=none;fillColor=none;align=left;verticalAlign=middle;spacingLeft=4;spacingRight=4;overflow=hidden;points=[[0,0.5],[1,0.5]];portConstraint=eastwest;rotatable=0;whiteSpace=wrap;html=1;" vertex="1" parent="sHE3IV5SO3RIi7z_2FYA-16">
          <mxGeometry y="60" width="373" height="30" as="geometry" />
        </mxCell>
        <mxCell id="sHE3IV5SO3RIi7z_2FYA-19" value="ingredients TEXT" style="text;strokeColor=none;fillColor=none;align=left;verticalAlign=middle;spacingLeft=4;spacingRight=4;overflow=hidden;points=[[0,0.5],[1,0.5]];portConstraint=eastwest;rotatable=0;whiteSpace=wrap;html=1;" vertex="1" parent="sHE3IV5SO3RIi7z_2FYA-16">
          <mxGeometry y="90" width="373" height="30" as="geometry" />
        </mxCell>
        <mxCell id="sHE3IV5SO3RIi7z_2FYA-20" value="instructions TEXT" style="text;strokeColor=none;fillColor=none;align=left;verticalAlign=middle;spacingLeft=4;spacingRight=4;overflow=hidden;points=[[0,0.5],[1,0.5]];portConstraint=eastwest;rotatable=0;whiteSpace=wrap;html=1;" vertex="1" parent="sHE3IV5SO3RIi7z_2FYA-16">
          <mxGeometry y="120" width="373" height="30" as="geometry" />
        </mxCell>
        <mxCell id="sHE3IV5SO3RIi7z_2FYA-21" value="calories INT" style="text;strokeColor=none;fillColor=none;align=left;verticalAlign=middle;spacingLeft=4;spacingRight=4;overflow=hidden;points=[[0,0.5],[1,0.5]];portConstraint=eastwest;rotatable=0;whiteSpace=wrap;html=1;" vertex="1" parent="sHE3IV5SO3RIi7z_2FYA-16">
          <mxGeometry y="150" width="373" height="30" as="geometry" />
        </mxCell>
        <mxCell id="sHE3IV5SO3RIi7z_2FYA-22" value="fats DECIMAL(5,2)" style="text;strokeColor=none;fillColor=none;align=left;verticalAlign=middle;spacingLeft=4;spacingRight=4;overflow=hidden;points=[[0,0.5],[1,0.5]];portConstraint=eastwest;rotatable=0;whiteSpace=wrap;html=1;" vertex="1" parent="sHE3IV5SO3RIi7z_2FYA-16">
          <mxGeometry y="180" width="373" height="30" as="geometry" />
        </mxCell>
        <mxCell id="sHE3IV5SO3RIi7z_2FYA-23" value="proteins DECIMAL(5,2)" style="text;strokeColor=none;fillColor=none;align=left;verticalAlign=middle;spacingLeft=4;spacingRight=4;overflow=hidden;points=[[0,0.5],[1,0.5]];portConstraint=eastwest;rotatable=0;whiteSpace=wrap;html=1;" vertex="1" parent="sHE3IV5SO3RIi7z_2FYA-16">
          <mxGeometry y="210" width="373" height="30" as="geometry" />
        </mxCell>
        <mxCell id="sHE3IV5SO3RIi7z_2FYA-24" value="carbs DECIMAL(5,2)" style="text;strokeColor=none;fillColor=none;align=left;verticalAlign=middle;spacingLeft=4;spacingRight=4;overflow=hidden;points=[[0,0.5],[1,0.5]];portConstraint=eastwest;rotatable=0;whiteSpace=wrap;html=1;" vertex="1" parent="sHE3IV5SO3RIi7z_2FYA-16">
          <mxGeometry y="240" width="373" height="30" as="geometry" />
        </mxCell>
        <mxCell id="sHE3IV5SO3RIi7z_2FYA-27" value="fecha_creacion TIMESTAMP DEFAULT CURRENT_TIMESTAMP" style="text;strokeColor=none;fillColor=none;align=left;verticalAlign=middle;spacingLeft=4;spacingRight=4;overflow=hidden;points=[[0,0.5],[1,0.5]];portConstraint=eastwest;rotatable=0;whiteSpace=wrap;html=1;" vertex="1" parent="sHE3IV5SO3RIi7z_2FYA-16">
          <mxGeometry y="270" width="373" height="30" as="geometry" />
        </mxCell>
        <mxCell id="sHE3IV5SO3RIi7z_2FYA-28" value="user_id INT REFERENCES users(id) ON DELETE CASCADE" style="text;strokeColor=none;fillColor=none;align=left;verticalAlign=middle;spacingLeft=4;spacingRight=4;overflow=hidden;points=[[0,0.5],[1,0.5]];portConstraint=eastwest;rotatable=0;whiteSpace=wrap;html=1;" vertex="1" parent="sHE3IV5SO3RIi7z_2FYA-16">
          <mxGeometry y="300" width="373" height="30" as="geometry" />
        </mxCell>
        <mxCell id="sHE3IV5SO3RIi7z_2FYA-29" style="edgeStyle=orthogonalEdgeStyle;rounded=0;orthogonalLoop=1;jettySize=auto;html=1;exitX=0;exitY=0.5;exitDx=0;exitDy=0;endArrow=none;startFill=0;" edge="1" parent="1" source="sHE3IV5SO3RIi7z_2FYA-21" target="G7vMpt5fk_W-xUACg-sZ-1">
          <mxGeometry relative="1" as="geometry" />
        </mxCell>
        <mxCell id="sHE3IV5SO3RIi7z_2FYA-30" value="1" style="text;html=1;align=center;verticalAlign=middle;whiteSpace=wrap;rounded=0;" vertex="1" parent="1">
          <mxGeometry x="1340" y="-749" width="60" height="30" as="geometry" />
        </mxCell>
        <mxCell id="sHE3IV5SO3RIi7z_2FYA-31" value="n" style="text;html=1;align=center;verticalAlign=middle;whiteSpace=wrap;rounded=0;" vertex="1" parent="1">
          <mxGeometry x="1479" y="-749" width="60" height="30" as="geometry" />
        </mxCell>
      </root>
    </mxGraphModel>
  </diagram>
</mxfile>
